{
  "accessors": [
    {
      "bufferView": 2,
      "componentType": 5126,
      "count": 2610,
      "max": [
        4.52521276473999,
        15.456008911132813,
        -0.5369983315467834
      ],
      "min": [
        -5.010921478271484,
        -14.326116561889648,
        -6.580690383911133
      ],
      "type": "VEC3"
    },
    {
      "bufferView": 2,
      "byteOffset": 31320,
      "componentType": 5126,
      "count": 2610,
      "max": [
        0.9993320107460022,
        1.0,
        0.9995638728141785
      ],
      "min": [
        -0.9993319511413574,
        -1.0,
        -0.9999253749847412
      ],
      "type": "VEC3"
    },
    {
      "bufferView": 1,
      "componentType": 5126,
      "count": 2610,
      "max": [
        1.0,
        1.0
      ],
      "min": [
        0.0,
        0.0
      ],
      "type": "VEC2"
    },
    {
      "bufferView": 1,
      "byteOffset": 20880,
      "componentType": 5126,
      "count": 2610,
      "max": [
        0.9779790639877319,
        0.9980080723762512
      ],
      "min": [
        0.0019522380316630006,
        0.002066493034362793
      ],
      "type": "VEC2"
    },
    {
      "bufferView": 0,
      "componentType": 5125,
      "count": 4194,
      "type": "SCALAR"
    },
    {
      "bufferView": 2,
      "byteOffset": 62640,
      "componentType": 5126,
      "count": 1870,
      "max": [
        5.9180684089660645,
        16.46552085876465,
        -0.31950974464416504
      ],
      "min": [
        -6.403777122497559,
        -17.866445541381836,
        -6.55484676361084
      ],
      "type": "VEC3"
    },
    {
      "bufferView": 2,
      "byteOffset": 85080,
      "componentType": 5126,
      "count": 1870,
      "max": [
        1.0,
        1.0,
        1.0
      ],
      "min": [
        -1.0,
        -1.0,
        -1.0
      ],
      "type": "VEC3"
    },
    {
      "bufferView": 1,
      "byteOffset": 41760,
      "componentType": 5126,
      "count": 1870,
      "max": [
        1.0,
        1.0
      ],
      "min": [
        0.0,
        0.0
      ],
      "type": "VEC2"
    },
    {
      "bufferView": 1,
      "byteOffset": 56720,
      "componentType": 5126,
      "count": 1870,
      "max": [
        0.9780701398849487,
        0.9974768757820129
      ],
      "min": [
        0.0019522309303283691,
        0.00199204683303833
      ],
      "type": "VEC2"
    },
    {
      "bufferView": 0,
      "byteOffset": 16776,
      "componentType": 5125,
      "count": 3258,
      "type": "SCALAR"
    },
    {
      "bufferView": 2,
      "byteOffset": 107520,
      "componentType": 5126,
      "count": 391,
      "max": [
        5.84309196472168,
        -11.493292808532715,
        -1.1421180963516235
      ],
      "min": [
        5.68560266494751,
        -13.425599098205566,
        -3.0087735652923584
      ],
      "type": "VEC3"
    },
    {
      "bufferView": 2,
      "byteOffset": 112212,
      "componentType": 5126,
      "count": 391,
      "max": [
        1.0,
        1.0,
        0.9994734525680542
      ],
      "min": [
        -1.0,
        -1.0,
        -0.9994734525680542
      ],
      "type": "VEC3"
    },
    {
      "bufferView": 1,
      "byteOffset": 71680,
      "componentType": 5126,
      "count": 391,
      "max": [
        1.0,
        1.0
      ],
      "min": [
        0.0,
        0.0
      ],
      "type": "VEC2"
    },
    {
      "bufferView": 1,
      "byteOffset": 74808,
      "componentType": 5126,
      "count": 391,
      "max": [
        0.9715777635574341,
        0.9976967573165894
      ],
      "min": [
        0.0019522309303283691,
        0.002364218235015869
      ],
      "type": "VEC2"
    },
    {
      "bufferView": 0,
      "byteOffset": 29808,
      "componentType": 5125,
      "count": 774,
      "type": "SCALAR"
    },
    {
      "bufferView": 2,
      "byteOffset": 116904,
      "componentType": 5126,
      "count": 461,
      "max": [
        6.17539119720459,
        -10.397619247436523,
        -0.013651962392032146
      ],
      "min": [
        3.3517589569091797,
        -14.521273612976074,
        -4.1373066902160645
      ],
      "type": "VEC3"
    },
    {
      "bufferView": 2,
      "byteOffset": 122436,
      "componentType": 5126,
      "count": 461,
      "max": [
        1.0,
        1.0,
        1.0
      ],
      "min": [
        -1.0,
        -1.0,
        -1.0
      ],
      "type": "VEC3"
    },
    {
      "bufferView": 1,
      "byteOffset": 77936,
      "componentType": 5126,
      "count": 461,
      "max": [
        1.0,
        1.0
      ],
      "min": [
        0.0,
        0.0
      ],
      "type": "VEC2"
    },
    {
      "bufferView": 1,
      "byteOffset": 81624,
      "componentType": 5126,
      "count": 461,
      "max": [
        0.8754116296768188,
        0.9026270508766174
      ],
      "min": [
        0.0900108814239502,
        0.1807965189218521
      ],
      "type": "VEC2"
    },
    {
      "bufferView": 0,
      "byteOffset": 32904,
      "componentType": 5125,
      "count": 714,
      "type": "SCALAR"
    },
    {
      "bufferView": 2,
      "byteOffset": 127968,
      "componentType": 5126,
      "count": 461,
      "max": [
        -3.837467670440674,
        -10.397619247436523,
        -0.013651962392032146
      ],
      "min": [
        -6.661099910736084,
        -14.521273612976074,
        -4.1373066902160645
      ],
      "type": "VEC3"
    },
    {
      "bufferView": 2,
      "byteOffset": 133500,
      "componentType": 5126,
      "count": 461,
      "max": [
        1.0,
        1.0,
        1.0
      ],
      "min": [
        -1.0,
        -1.0,
        -1.0
      ],
      "type": "VEC3"
    },
    {
      "bufferView": 1,
      "byteOffset": 85312,
      "componentType": 5126,
      "count": 461,
      "max": [
        1.0,
        1.0
      ],
      "min": [
        0.0,
        0.0
      ],
      "type": "VEC2"
    },
    {
      "bufferView": 1,
      "byteOffset": 89000,
      "componentType": 5126,
      "count": 461,
      "max": [
        0.9283300638198853,
        0.9045413732528687
      ],
      "min": [
        0.001952238380908966,
        0.1807965189218521
      ],
      "type": "VEC2"
    },
    {
      "bufferView": 0,
      "byteOffset": 35760,
      "componentType": 5125,
      "count": 714,
      "type": "SCALAR"
    },
    {
      "bufferView": 2,
      "byteOffset": 139032,
      "componentType": 5126,
      "count": 391,
      "max": [
        -6.171311378479004,
        -11.493292808532715,
        -1.1421180963516235
      ],
      "min": [
        -6.328800678253174,
        -13.425599098205566,
        -3.0087735652923584
      ],
      "type": "VEC3"
    },
    {
      "bufferView": 2,
      "byteOffset": 143724,
      "componentType": 5126,
      "count": 391,
      "max": [
        1.0,
        1.0,
        0.9994734525680542
      ],
      "min": [
        -1.0,
        -1.0,
        -0.9994734525680542
      ],
      "type": "VEC3"
    },
    {
      "bufferView": 1,
      "byteOffset": 92688,
      "componentType": 5126,
      "count": 391,
      "max": [
        1.0,
        1.0
      ],
      "min": [
        0.0,
        0.0
      ],
      "type": "VEC2"
    },
    {
      "bufferView": 1,
      "byteOffset": 95816,
      "componentType": 5126,
      "count": 391,
      "max": [
        0.9776496887207031,
        0.9976972341537476
      ],
      "min": [
        0.034495651721954346,
        0.003740668296813965
      ],
      "type": "VEC2"
    },
    {
      "bufferView": 0,
      "byteOffset": 38616,
      "componentType": 5125,
      "count": 774,
      "type": "SCALAR"
    },
    {
      "bufferView": 2,
      "byteOffset": 148416,
      "componentType": 5126,
      "count": 461,
      "max": [
        6.123523712158203,
        10.312139511108398,
        -0.013651962392032146
      ],
      "min": [
        3.984213352203369,
        6.188485145568848,
        -4.1373066902160645
      ],
      "type": "VEC3"
    },
    {
      "bufferView": 2,
      "byteOffset": 153948,
      "componentType": 5126,
      "count": 461,
      "max": [
        1.0,
        1.0,
        1.0
      ],
      "min": [
        -1.0,
        -1.0,
        -1.0
      ],
      "type": "VEC3"
    },
    {
      "bufferView": 1,
      "byteOffset": 98944,
      "componentType": 5126,
      "count": 461,
      "max": [
        1.0,
        1.0
      ],
      "min": [
        0.0,
        0.0
      ],
      "type": "VEC2"
    },
    {
      "bufferView": 1,
      "byteOffset": 102632,
      "componentType": 5126,
      "count": 461,
      "max": [
        0.9595541954040527,
        0.8968284130096436
      ],
      "min": [
        0.0019522309303283691,
        0.002750236541032791
      ],
      "type": "VEC2"
    },
    {
      "bufferView": 0,
      "byteOffset": 41712,
      "componentType": 5125,
      "count": 714,
      "type": "SCALAR"
    },
    {
      "bufferView": 2,
      "byteOffset": 159480,
      "componentType": 5126,
      "count": 391,
      "max": [
        5.791224479675293,
        9.216465950012207,
        -1.1421180963516235
      ],
      "min": [
        5.633735179901123,
        7.2841596603393555,
        -3.0087735652923584
      ],
      "type": "VEC3"
    },
    {
      "bufferView": 2,
      "byteOffset": 164172,
      "componentType": 5126,
      "count": 391,
      "max": [
        1.0,
        1.0,
        0.9994734525680542
      ],
      "min": [
        -1.0,
        -1.0,
        -0.9994734525680542
      ],
      "type": "VEC3"
    },
    {
      "bufferView": 1,
      "byteOffset": 106320,
      "componentType": 5126,
      "count": 391,
      "max": [
        1.0,
        1.0
      ],
      "min": [
        0.0,
        0.0
      ],
      "type": "VEC2"
    },
    {
      "bufferView": 1,
      "byteOffset": 109448,
      "componentType": 5126,
      "count": 391,
      "max": [
        0.9193646907806396,
        0.9952812194824219
      ],
      "min": [
        0.0019522309303283691,
        0.0024416446685791016
      ],
      "type": "VEC2"
    },
    {
      "bufferView": 0,
      "byteOffset": 44568,
      "componentType": 5125,
      "count": 774,
      "type": "SCALAR"
    },
    {
      "bufferView": 2,
      "byteOffset": 168864,
      "componentType": 5126,
      "count": 461,
      "max": [
        -4.469922065734863,
        10.312139511108398,
        -0.013651962392032146
      ],
      "min": [
        -6.609232425689697,
        6.188485145568848,
        -4.1373066902160645
      ],
      "type": "VEC3"
    },
    {
      "bufferView": 2,
      "byteOffset": 174396,
      "componentType": 5126,
      "count": 461,
      "max": [
        1.0,
        1.0,
        1.0
      ],
      "min": [
        -1.0,
        -1.0,
        -1.0
      ],
      "type": "VEC3"
    },
    {
      "bufferView": 1,
      "byteOffset": 112576,
      "componentType": 5126,
      "count": 461,
      "max": [
        1.0,
        1.0
      ],
      "min": [
        0.0,
        0.0
      ],
      "type": "VEC2"
    },
    {
      "bufferView": 1,
      "byteOffset": 116264,
      "componentType": 5126,
      "count": 461,
      "max": [
        0.8875429034233093,
        0.8413132429122925
      ],
      "min": [
        0.0995824933052063,
        0.002750236541032791
      ],
      "type": "VEC2"
    },
    {
      "bufferView": 0,
      "byteOffset": 47664,
      "componentType": 5125,
      "count": 714,
      "type": "SCALAR"
    },
    {
      "bufferView": 2,
      "byteOffset": 179928,
      "componentType": 5126,
      "count": 391,
      "max": [
        -6.119443893432617,
        9.216465950012207,
        -1.1421180963516235
      ],
      "min": [
        -6.276933193206787,
        7.2841596603393555,
        -3.0087735652923584
      ],
      "type": "VEC3"
    },
    {
      "bufferView": 2,
      "byteOffset": 184620,
      "componentType": 5126,
      "count": 391,
      "max": [
        1.0,
        1.0,
        0.9994734525680542
      ],
      "min": [
        -1.0,
        -1.0,
        -0.9994734525680542
      ],
      "type": "VEC3"
    },
    {
      "bufferView": 1,
      "byteOffset": 119952,
      "componentType": 5126,
      "count": 391,
      "max": [
        1.0,
        1.0
      ],
      "min": [
        0.0,
        0.0
      ],
      "type": "VEC2"
    },
    {
      "bufferView": 1,
      "byteOffset": 123080,
      "componentType": 5126,
      "count": 391,
      "max": [
        0.9763954877853394,
        0.9952812194824219
      ],
      "min": [
        0.021095454692840576,
        0.0021636486053466797
      ],
      "type": "VEC2"
    },
    {
      "bufferView": 0,
      "byteOffset": 50520,
      "componentType": 5125,
      "count": 774,
      "type": "SCALAR"
    }
  ],
  "asset": {
    "extras": {
      "author": "ViperJr3D (https://sketchfab.com/ViperJr3D)",
      "license": "SKETCHFAB Editorial (https://sketchfab.com/licenses)",
      "source": "https://sketchfab.com/3d-models/low-poly-formula-1-car-01-d9a8d14ee9154162925205e1944dcbec",
      "title": "Low Poly Formula 1 Car 01"
    },
    "generator": "Sketchfab-15.22.0",
    "version": "2.0"
  },
  "bufferViews": [
    {
      "buffer": 0,
      "byteLength": 53616,
      "name": "floatBufferViews",
      "target": 34963
    },
    {
      "buffer": 0,
      "byteLength": 126208,
      "byteOffset": 53616,
      "byteStride": 8,
      "name": "floatBufferViews",
      "target": 34962
    },
    {
      "buffer": 0,
      "byteLength": 189312,
      "byteOffset": 179824,
      "byteStride": 12,
      "name": "floatBufferViews",
      "target": 34962
    }
  ],
  "buffers": [
    {
      "byteLength": 369136,
      "uri": "scene.bin"
    }
  ],
  "materials": [
    {
      "doubleSided": true,
      "name": "Red_Color_Formula_1",
      "pbrMetallicRoughness": {
        "baseColorFactor": [
          0.5,
          0.0,
          0.0,
          1.0
        ],
        "metallicFactor": 0.0,
        "roughnessFactor": 0.552786
      }
    },
    {
      "doubleSided": true,
      "name": "Black_Formula_1",
      "pbrMetallicRoughness": {
        "baseColorFactor": [
          0.011,
          0.011,
          0.011,
          1.0
        ],
        "metallicFactor": 0.0,
        "roughnessFactor": 0.552786
      }
    },
    {
      "doubleSided": true,
      "name": "Grey_Wheel_Formula_1",
      "pbrMetallicRoughness": {
        "baseColorFactor": [
          0.064,
          0.064,
          0.064,
          1.0
        ],
        "metallicFactor": 0.0,
        "roughnessFactor": 0.552786
      }
    }
  ],
  "meshes": [
    {
      "name": "Object_0",
      "primitives": [
        {
          "attributes": {
            "NORMAL": 1,
            "POSITION": 0,
            "TEXCOORD_0": 2,
            "TEXCOORD_1": 3
          },
          "indices": 4,
          "material": 0,
          "mode": 4
        }
      ]
    },
    {
      "name": "Object_1",
      "primitives": [
        {
          "attributes": {
            "NORMAL": 6,
            "POSITION": 5,
            "TEXCOORD_0": 7,
            "TEXCOORD_1": 8
          },
          "indices": 9,
          "material": 1,
          "mode": 4
        }
      ]
    },
    {
      "name": "Object_2",
      "primitives": [
        {
          "attributes": {
            "NORMAL": 11,
            "POSITION": 10,
            "TEXCOORD_0": 12,
            "TEXCOORD_1": 13
          },
          "indices": 14,
          "material": 2,
          "mode": 4
        }
      ]
    },
    {
      "name": "Object_3",
      "primitives": [
        {
          "attributes": {
            "NORMAL": 16,
            "POSITION": 15,
            "TEXCOORD_0": 17,
            "TEXCOORD_1": 18
          },
          "indices": 19,
          "material": 1,
          "mode": 4
        }
      ]
    },
    {
      "name": "Object_4",
      "primitives": [
        {
          "attributes": {
            "NORMAL": 21,
            "POSITION": 20,
            "TEXCOORD_0": 22,
            "TEXCOORD_1": 23
          },
          "indices": 24,
          "material": 1,
          "mode": 4
        }
      ]
    },
    {
      "name": "Object_5",
      "primitives": [
        {
          "attributes": {
            "NORMAL": 26,
            "POSITION": 25,
            "TEXCOORD_0": 27,
            "TEXCOORD_1": 28
          },
          "indices": 29,
          "material": 2,
          "mode": 4
        }
      ]
    },
    {
      "name": "Object_6",
      "primitives": [
        {
          "attributes": {
            "NORMAL": 31,
            "POSITION": 30,
            "TEXCOORD_0": 32,
            "TEXCOORD_1": 33
          },
          "indices": 34,
          "material": 1,
          "mode": 4
        }
      ]
    },
    {
      "name": "Object_7",
      "primitives": [
        {
          "attributes": {
            "NORMAL": 36,
            "POSITION": 35,
            "TEXCOORD_0": 37,
            "TEXCOORD_1": 38
          },
          "indices": 39,
          "material": 2,
          "mode": 4
        }
      ]
    },
    {
      "name": "Object_8",
      "primitives": [
        {
          "attributes": {
            "NORMAL": 41,
            "POSITION": 40,
            "TEXCOORD_0": 42,
            "TEXCOORD_1": 43
          },
          "indices": 44,
          "material": 1,
          "mode": 4
        }
      ]
    },
    {
      "name": "Object_9",
      "primitives": [
        {
          "attributes": {
            "NORMAL": 46,
            "POSITION": 45,
            "TEXCOORD_0": 47,
            "TEXCOORD_1": 48
          },
          "indices": 49,
          "material": 2,
          "mode": 4
        }
      ]
    }
  ],
  "nodes": [
    {
      "children": [
        1
      ],
      "matrix": [
        1.0,
        0.0,
        0.0,
        0.0,
        0.0,
        2.220446049250313e-16,
        -1.0,
        0.0,
        0.0,
        1.0,
        2.220446049250313e-16,
        0.0,
        0.0,
        0.0,
        0.0,
        1.0
      ],
      "name": "Sketchfab_model"
    },
    {
      "children": [
        2
      ],
      "name": "root"
    },
    {
      "children": [
        3
      ],
      "matrix": [
        1.0,
        0.0,
        0.0,
        0.0,
        0.0,
        2.220446049250313e-16,
        1.0,
        0.0,
        0.0,
        -1.0,
        2.220446049250313e-16,
        0.0,
        0.0,
        0.0,
        0.0,
        1.0
      ],
      "name": "GLTF_SceneRootNode"
    },
    {
      "children": [
        4,
        7,
        10,
        13,
        16
      ],
      "matrix": [
        0.45937514305114746,
        0.0,
        0.0,
        0.0,
        0.0,
        -7.744485958202173e-08,
        0.4593751430511409,
        0.0,
        0.0,
        -0.4593751430511409,
        -7.744485958202173e-08,
        0.0,
        0.0,
        0.0,
        0.0,
        1.0
      ],
      "name": "Low_Poly_Formula1_Car_01_7"
    },
    {
      "children": [
        5,
        6
      ],
      "name": "Low_Poly_Formula1_Car_01_Body_2"
    },
    {
      "mesh": 0,
      "name": "Object_5"
    },
    {
      "mesh": 1,
      "name": "Object_6"
    },
    {
      "children": [
        8,
        9
      ],
      "name": "Low_Poly_Formula1_Car_01_Wheel_Back_Left_3"
    },
    {
      "mesh": 2,
      "name": "Object_8"
    },
    {
      "mesh": 3,
      "name": "Object_9"
    },
    {
      "children": [
        11,
        12
      ],
      "name": "Low_Poly_Formula1_Car_01_Wheel_Back_Right_4"
    },
    {
      "mesh": 4,
      "name": "Object_11"
    },
    {
      "mesh": 5,
      "name": "Object_12"
    },
    {
      "children": [
        14,
        15
      ],
      "name": "Low_Poly_Formula1_Car_01_Wheel_Front_Left_5"
    },
    {
      "mesh": 6,
      "name": "Object_14"
    },
    {
      "mesh": 7,
      "name": "Object_15"
    },
    {
      "children": [
        17,
        18
      ],
      "name": "Low_Poly_Formula1_Car_01_Wheel_Front_Right_6"
    },
    {
      "mesh": 8,
      "name": "Object_17"
    },
    {
      "mesh": 9,
      "name": "Object_18"
    }
  ],
  "scene": 0,
  "scenes": [
    {
      "name": "Sketchfab_Scene",
      "nodes": [
        0
      ]
    }
  ]
}
